<?xml version="1.0" standalone="no"?>
<!DOCTYPE svg PUBLIC "-//W3C//DTD SVG 20010904//EN"
 "http://www.w3.org/TR/2001/REC-SVG-20010904/DTD/svg10.dtd">
<svg version="1.0" xmlns="http://www.w3.org/2000/svg"
 width="487.000000pt" height="487.000000pt" viewBox="0 0 487.000000 487.000000"
 preserveAspectRatio="xMidYMid meet">
<metadata>
Created by potrace 1.14, written by Peter Selinger 2001-2017
</metadata>
<g transform="translate(0.000000,487.000000) scale(0.100000,-0.100000)"
fill="#000000" stroke="none">
<path d="M695 3263 c-218 -40 -344 -109 -478 -262 -34 -39 -97 -136 -97 -151
0 -5 -4 -10 -9 -10 -5 0 -11 -10 -14 -22 -3 -13 -13 -43 -22 -68 -19 -51 -24
-72 -29 -116 -2 -17 -5 -35 -8 -40 -6 -11 -2 -166 6 -209 12 -74 36 -154 53
-180 7 -11 13 -27 13 -37 0 -10 5 -18 10 -18 6 0 10 -7 10 -15 0 -8 4 -15 10
-15 5 0 9 -3 7 -8 -3 -10 84 -121 124 -157 68 -62 203 -138 262 -149 12 -3 22
-5 22 -6 0 -5 92 -22 128 -24 15 0 27 -3 27 -6 0 -3 60 -5 133 -4 72 1 132 2
132 3 0 1 20 4 45 7 51 5 103 12 134 19 12 3 32 7 46 10 22 4 53 12 123 30 9
3 25 7 35 9 108 26 351 133 537 236 39 21 79 43 90 48 11 6 56 31 100 57 44
27 86 48 93 48 6 0 12 4 12 9 0 5 12 14 28 21 15 6 32 15 37 20 15 11 176 108
206 124 24 12 32 10 95 -24 38 -21 92 -49 119 -63 28 -14 53 -29 57 -35 4 -5
8 -6 8 -1 0 4 11 1 25 -8 13 -9 31 -16 40 -16 8 0 15 -4 15 -10 0 -5 9 -10 20
-10 11 0 20 -5 20 -12 0 -6 3 -8 6 -5 4 4 19 0 33 -7 36 -19 147 -66 156 -66
4 0 21 -6 38 -14 98 -44 396 -134 582 -177 86 -19 104 -27 125 -53 45 -55 118
-123 162 -151 9 -5 62 -41 119 -79 56 -38 110 -71 120 -73 11 -3 28 5 43 21
14 14 26 22 26 18 0 -4 4 -2 8 3 4 6 36 32 72 60 36 27 67 53 68 57 2 5 9 8
15 8 6 0 42 33 81 73 74 76 127 167 165 281 11 32 31 73 45 91 14 18 22 35 19
39 -4 3 -1 6 5 6 7 0 12 3 11 8 -2 13 13 52 20 52 4 0 8 6 9 13 1 14 10 52 12
52 1 0 3 7 5 15 2 8 6 29 10 45 21 90 -1 325 -34 358 -5 5 -7 16 -4 23 3 8 0
14 -7 14 -6 0 -8 5 -5 10 3 6 1 10 -4 10 -6 0 -11 6 -11 13 0 22 -74 128 -125
180 -44 45 -165 134 -165 122 0 -3 -10 0 -22 7 -13 7 -25 13 -28 14 -3 0 -12
4 -20 7 -8 4 -26 9 -40 11 -14 3 -25 5 -25 6 0 13 -273 19 -350 8 -124 -19
-251 -50 -423 -104 -7 -2 -16 -4 -20 -5 -4 -1 -28 -9 -53 -20 -26 -10 -50 -15
-53 -12 -3 4 -6 1 -6 -5 0 -7 -3 -11 -7 -10 -10 2 -60 -18 -93 -36 -14 -8 -29
-15 -35 -16 -5 0 -37 -13 -70 -28 -33 -15 -63 -26 -67 -24 -5 1 -8 -3 -8 -10
0 -6 -3 -8 -7 -5 -3 4 -11 3 -17 -2 -6 -5 -56 -32 -111 -61 -55 -29 -154 -85
-220 -124 -66 -39 -127 -74 -135 -79 -8 -4 -28 -16 -45 -27 -16 -11 -37 -23
-45 -26 -8 -4 -23 -14 -32 -22 -16 -13 -27 -8 -115 44 -54 33 -111 66 -128 74
-16 8 -32 17 -35 20 -20 22 -511 261 -543 264 -4 1 -11 6 -15 11 -4 6 -14 11
-22 13 -8 1 -49 16 -90 31 -41 16 -84 32 -95 37 -11 4 -23 8 -27 8 -3 1 -10 4
-14 9 -4 4 -17 7 -29 7 -11 0 -26 5 -33 12 -7 7 -12 9 -12 5 0 -3 -20 2 -45
13 -25 11 -45 17 -45 13 0 -3 -7 0 -15 7 -8 7 -15 9 -15 6 0 -4 -8 -2 -18 3
-11 6 -31 12 -46 15 -15 3 -50 11 -79 20 -99 28 -170 38 -281 40 -61 2 -120 1
-131 -1z m3620 -115 c33 -6 65 -14 70 -18 6 -4 22 -10 36 -13 35 -9 124 -71
176 -123 60 -60 146 -203 146 -241 0 -7 3 -13 7 -13 4 0 7 -6 7 -12 1 -7 5
-33 9 -58 13 -71 8 -260 -6 -260 -3 0 -7 -10 -7 -22 -2 -18 -28 -90 -39 -107
-2 -1 -8 0 -14 4 -8 5 -8 11 1 21 8 10 8 14 0 14 -6 0 -11 10 -11 23 0 13 -5
28 -12 35 -7 7 -8 12 -4 12 4 0 -13 20 -39 44 -71 65 -158 84 -257 54 -40 -12
-148 -107 -148 -129 0 -16 -42 -99 -50 -99 -4 0 -18 25 -30 55 -55 136 -194
201 -331 155 -72 -25 -135 -92 -145 -156 -11 -73 12 -210 45 -273 7 -12 11
-26 9 -31 -5 -14 -301 87 -451 154 -31 14 -59 25 -62 26 -7 1 -225 114 -266
137 -91 52 -254 156 -257 164 -2 5 -8 9 -14 9 -5 0 -15 6 -23 13 -11 12 -4 19
42 47 31 19 62 40 69 48 8 7 14 11 14 7 0 -3 6 -1 13 5 30 27 176 117 181 112
3 -3 6 0 6 7 0 7 5 9 10 6 6 -3 10 -2 10 2 0 5 17 17 38 28 20 11 39 23 42 26
5 6 297 150 372 183 20 9 42 16 50 16 8 0 19 5 24 10 6 6 19 12 30 14 10 2 33
10 49 17 17 7 32 13 35 14 3 1 38 11 79 24 65 20 84 25 126 34 6 2 16 6 23 11
7 4 16 6 19 3 3 -3 16 -2 30 4 29 11 75 18 163 26 36 3 66 6 67 7 6 5 113 -5
168 -16z m-3400 -143 c85 -8 100 -11 195 -35 47 -12 92 -23 100 -24 8 -2 22
-6 30 -9 8 -4 24 -8 35 -10 73 -12 523 -171 536 -190 3 -5 8 -7 10 -6 7 5 149
-54 149 -61 0 -4 6 -7 13 -7 6 0 41 -14 76 -32 36 -17 70 -31 77 -31 7 0 14
-3 16 -7 2 -5 43 -28 93 -51 63 -31 85 -46 75 -52 -8 -4 -40 -22 -70 -39 -30
-17 -98 -52 -150 -78 -52 -26 -96 -51 -98 -55 -2 -5 -12 -8 -23 -8 -10 0 -19
-4 -19 -10 0 -5 -8 -10 -19 -10 -10 0 -24 -7 -31 -15 -7 -9 -15 -13 -18 -10
-3 3 -14 -3 -25 -12 -10 -10 -21 -17 -23 -16 -10 4 -44 -11 -44 -20 0 -6 -3
-8 -6 -5 -3 4 -44 -11 -90 -32 -46 -22 -88 -40 -92 -41 -17 -4 -38 -11 -57
-20 -12 -6 -27 -11 -35 -13 -8 -2 -22 -6 -30 -9 -25 -11 -211 -55 -260 -63
-133 -19 -177 -22 -310 -19 -80 1 -158 6 -175 9 -63 14 -141 39 -170 54 -16 9
-33 15 -37 14 -17 -4 -139 131 -167 186 -83 165 -74 360 24 507 59 89 184 189
250 199 5 1 15 5 21 8 6 4 46 10 90 14 43 4 81 8 83 10 2 2 7 2 10 -1 4 -2 34
-6 66 -10z m3548 -664 c23 -3 69 -35 89 -63 20 -28 23 -45 23 -113 -1 -151
-82 -289 -232 -398 -24 -17 -43 -34 -43 -39 0 -4 -7 -8 -15 -8 -9 0 -18 -7
-21 -15 -4 -8 -10 -12 -15 -9 -5 3 -9 1 -9 -4 0 -5 -10 -14 -23 -21 -20 -11
-31 -6 -102 41 -44 29 -85 57 -91 63 -6 5 -22 17 -34 25 -25 17 -102 90 -94
90 3 0 0 6 -6 13 -41 48 -49 61 -44 68 3 5 1 9 -4 9 -8 0 -37 72 -37 92 0 3
-3 10 -7 14 -14 14 -8 130 8 162 15 32 63 72 89 76 8 1 18 5 21 9 11 11 72 8
114 -4 50 -15 91 -54 122 -116 14 -28 29 -48 34 -45 12 9 34 49 34 63 0 6 6
16 13 23 6 8 19 23 27 35 29 42 129 76 175 60 11 -3 23 -7 28 -8z"/>
</g>
</svg>
